<svg width="46" height="40" viewBox="0 0 46 40" fill="none" xmlns="http://www.w3.org/2000/svg">
<path fill-rule="evenodd" clip-rule="evenodd" d="M8.78957 34.9691C9.97957 34.9691 10.9479 35.9358 10.9479 37.1258C10.9479 38.3158 9.97957 39.2841 8.78957 39.2841C7.59957 39.2841 6.63291 38.3158 6.63291 37.1258C6.63291 35.9358 7.59957 34.9691 8.78957 34.9691ZM27.5901 34.9691C28.7817 34.9691 29.7501 35.9358 29.7501 37.1258C29.7501 38.3158 28.7817 39.2841 27.5901 39.2841C26.4001 39.2841 25.4334 38.3158 25.4334 37.1258C25.4334 35.9358 26.4001 34.9691 27.5901 34.9691ZM1.66324 6.73175L5.12991 7.33175C5.68824 7.43009 6.11324 7.89342 6.16157 8.46009L6.55324 13.1284L8.00966 13.129C8.24732 13.1292 8.48246 13.1293 8.71511 13.1294L11.3889 13.1306C11.6021 13.1307 11.8128 13.1308 12.0212 13.131L14.9735 13.1326C15.159 13.1327 15.3423 13.1328 15.5233 13.1329L17.5922 13.1342C17.7561 13.1343 17.9179 13.1344 18.0777 13.1346L19.8974 13.1359C20.041 13.136 20.1827 13.1361 20.3225 13.1362L21.9091 13.1376C22.0339 13.1377 22.1569 13.1378 22.278 13.1379L23.3208 13.139C23.4315 13.1391 23.5404 13.1392 23.6476 13.1393L24.8553 13.1407C24.9494 13.1408 25.042 13.141 25.1331 13.1411L26.1527 13.1425C26.2317 13.1426 26.3093 13.1427 26.3855 13.1429L27.0335 13.1439C27.1014 13.1441 27.168 13.1442 27.2332 13.1443L27.9551 13.1458C28.0103 13.1459 28.0643 13.146 28.1171 13.1461L28.5614 13.1472C28.6073 13.1474 28.6522 13.1475 28.6961 13.1476L29.1723 13.1491C29.208 13.1492 29.2428 13.1494 29.2766 13.1495L29.5562 13.1506C29.5846 13.1508 29.6122 13.1509 29.6389 13.151L29.9218 13.1526C29.9424 13.1527 29.9622 13.1528 29.9813 13.153L30.1355 13.1541C30.1507 13.1543 30.1653 13.1544 30.1793 13.1545L30.2903 13.1557C30.301 13.1558 30.3113 13.156 30.321 13.1561L30.3965 13.1573C30.4036 13.1574 30.4103 13.1576 30.4167 13.1577L30.4645 13.1589C30.4688 13.159 30.4729 13.1592 30.4767 13.1593L30.5113 13.1609L30.5172 13.1614C30.5335 13.1629 30.5382 13.1634 30.5382 13.1634C31.4666 13.2984 32.2832 13.7834 32.8399 14.5301C33.3966 15.2751 33.6299 16.1934 33.4966 17.1134L31.9149 28.0434C31.6166 30.1234 29.8099 31.6918 27.7099 31.6918H9.50824C7.31324 31.6918 5.45491 29.9784 5.27657 27.7868L3.74991 9.63009L1.23824 9.19675C0.556572 9.07675 0.101572 8.43175 0.218239 7.75009C0.338239 7.06842 0.996572 6.62509 1.66324 6.73175ZM7.67529 15.629L6.76324 15.6284L7.76824 27.5818C7.84157 28.5018 8.59324 29.1918 9.51157 29.1918H27.7066C28.5749 29.1918 29.3166 28.5451 29.4399 27.6868L31.0232 16.7551C31.0599 16.4951 30.9949 16.2351 30.8366 16.0251C30.6799 15.8134 30.4499 15.6768 30.1899 15.6401C30.1779 15.6405 30.1491 15.641 30.1044 15.6413L29.9231 15.6424C29.8852 15.6425 29.8435 15.6427 29.7981 15.6428L28.8539 15.6443C28.7742 15.6443 28.6914 15.6444 28.6055 15.6444L26.3856 15.6443C26.2617 15.6443 26.1355 15.6442 26.007 15.6442L23.4735 15.6426C23.3217 15.6425 23.1683 15.6424 23.0133 15.6423L21.5797 15.6411C21.4164 15.641 21.2519 15.6409 21.0863 15.6407L19.5678 15.6394C19.3963 15.6392 19.224 15.6391 19.051 15.6389L18.005 15.6379C17.8295 15.6378 17.6535 15.6376 17.4771 15.6375L15.8809 15.636C15.7029 15.6358 15.5248 15.6356 15.3468 15.6355L14.279 15.6345C14.1013 15.6343 13.9238 15.6341 13.7466 15.634L12.688 15.633C12.5124 15.6329 12.3373 15.6327 12.1629 15.6326L10.612 15.6312C10.4422 15.6311 10.2732 15.6309 10.1053 15.6308L8.14539 15.6293C7.98723 15.6292 7.8305 15.6291 7.67529 15.629ZM25.0297 19.2889C25.7197 19.2889 26.2797 19.8489 26.2797 20.5389C26.2797 21.2289 25.7197 21.7889 25.0297 21.7889H20.4097C19.7181 21.7889 19.1597 21.2289 19.1597 20.5389C19.1597 19.8489 19.7181 19.2889 20.4097 19.2889H25.0297Z" fill="black"/>
<circle cx="33.8" cy="12" r="12" fill="#F7763D"/>
<path d="M34.425 11.56C33.935 11.56 33.595 11.455 33.405 11.245C33.415 11.405 33.42 11.685 33.42 12.085V16H31.875V12.1C31.875 11.12 31.825 10.275 31.725 9.565C31.625 8.845 31.425 7.985 31.125 6.985L32.61 6.46L33.285 9.085C33.435 9.655 33.775 9.94 34.305 9.94C34.575 9.94 34.805 9.86 34.995 9.7C35.185 9.53 35.28 9.315 35.28 9.055C35.28 8.715 35.18 7.96 34.98 6.79L36.54 6.46C36.74 7.65 36.84 8.53 36.84 9.1C36.84 9.57 36.735 9.995 36.525 10.375C36.315 10.745 36.025 11.035 35.655 11.245C35.295 11.455 34.885 11.56 34.425 11.56Z" fill="white"/>
</svg>
