<svg width="51" height="34" viewBox="0 0 51 34" fill="none" xmlns="http://www.w3.org/2000/svg">
<path fill-rule="evenodd" clip-rule="evenodd" d="M17.4583 5.72044C20.1683 4.18699 23.7683 3.76336 26.8783 4.65538C33.6433 6.60799 35.7433 13.2087 33.8649 18.4608C30.9666 26.7098 18.5883 32.863 18.0633 33.121C17.8766 33.2135 17.6699 33.2598 17.4633 33.2598C17.2566 33.2598 17.0516 33.215 16.8649 33.124C16.3433 32.8689 4.05492 26.8068 1.05992 18.4623L1.05825 18.4608C-0.821745 13.2072 1.27159 6.605 8.02992 4.65538C11.2033 3.73651 14.6616 4.14075 17.4583 5.72044ZM8.79659 6.7855C3.32826 8.36369 1.95492 13.6278 3.43992 17.7792C5.77659 24.2858 15.0083 29.547 17.4616 30.8492C19.9233 29.5336 29.2216 24.2142 31.4833 17.7851C32.9683 13.6293 31.5899 8.36518 26.1133 6.7855C23.4599 6.02325 20.3649 6.48716 18.2283 7.9669C17.7816 8.27419 17.1616 8.28015 16.7116 7.97585C14.4483 6.45285 11.4916 6.00684 8.79659 6.7855ZM24.5133 9.74781C26.7849 10.4056 28.3766 12.2061 28.5716 14.3347C28.6266 14.9508 28.1149 15.4908 27.4266 15.54C27.3916 15.543 27.3583 15.5445 27.3233 15.5445C26.6783 15.5445 26.1316 15.1014 26.0783 14.5167C25.9683 13.2905 25.0516 12.2553 23.7466 11.8779C23.0883 11.687 22.7283 11.056 22.9399 10.4698C23.1549 9.88207 23.8533 9.56285 24.5133 9.74781Z" fill="black"/>
<circle cx="38.2" cy="12.0244" r="12" fill="#F7763D"/>
<path d="M38.0922 7.59935C38.5922 7.59935 39.0722 7.73935 39.5322 8.01935C40.0022 8.29935 40.3772 8.66935 40.6572 9.12935C40.9372 9.58935 41.0772 10.0694 41.0772 10.5694C41.0772 11.0694 40.9372 11.5544 40.6572 12.0244C40.3772 12.4844 40.0022 12.8544 39.5322 13.1344C39.0722 13.4144 38.5922 13.5544 38.0922 13.5544C37.5922 13.5544 37.1072 13.4144 36.6372 13.1344C36.1772 12.8544 35.8072 12.4844 35.5272 12.0244C35.2472 11.5544 35.1072 11.0694 35.1072 10.5694C35.1072 10.0694 35.2472 9.58935 35.5272 9.12935C35.8072 8.66935 36.1772 8.29935 36.6372 8.01935C37.1072 7.73935 37.5922 7.59935 38.0922 7.59935ZM38.0922 12.0694C38.3322 12.0694 38.5672 11.9994 38.7972 11.8594C39.0372 11.7094 39.2272 11.5194 39.3672 11.2894C39.5172 11.0494 39.5922 10.8094 39.5922 10.5694C39.5922 10.3294 39.5172 10.0944 39.3672 9.86435C39.2272 9.63435 39.0372 9.44935 38.7972 9.30935C38.5672 9.16935 38.3322 9.09935 38.0922 9.09935C37.8522 9.09935 37.6122 9.17435 37.3722 9.32435C37.1422 9.46435 36.9522 9.64935 36.8022 9.87935C36.6622 10.0994 36.5922 10.3294 36.5922 10.5694C36.5922 10.8094 36.6622 11.0494 36.8022 11.2894C36.9522 11.5194 37.1422 11.7094 37.3722 11.8594C37.6122 11.9994 37.8522 12.0694 38.0922 12.0694Z" fill="white"/>
</svg>
